<?xml version="1.0" encoding="utf-8"?>
<!-- Generator: Adobe Illustrator 19.0.0, SVG Export Plug-In . SVG Version: 6.00 Build 0)  -->
<svg version="1.1" id="Capa_1" xmlns="http://www.w3.org/2000/svg" xmlns:xlink="http://www.w3.org/1999/xlink" x="0px" y="0px"
	 viewBox="0 0 82.6 146.7" style="enable-background:new 0 0 82.6 146.7;" xml:space="preserve">
<style type="text/css">
	.st0{clip-path:url(#XMLID_83_);}
	.st1{fill:#FFFFFF;}
	.st2{clip-path:url(#XMLID_84_);fill:#409B62;}
	.st3{clip-path:url(#XMLID_84_);fill:#389A65;}
	.st4{clip-path:url(#XMLID_84_);fill:#349065;}
	.st5{fill:none;stroke:#88B137;stroke-miterlimit:10;}
	.st6{fill:none;stroke:#88B137;stroke-miterlimit:10;stroke-dasharray:1.0412,1.0412;}
	.st7{fill:none;stroke:#88B137;stroke-miterlimit:10;stroke-dasharray:1.0978,1.0978;}
</style>
<g id="XMLID_3_">
	<defs>
		<rect id="XMLID_1_" width="82.6" height="146.7"/>
	</defs>
	<clipPath id="XMLID_83_">
		<use xlink:href="#XMLID_1_"  style="overflow:visible;"/>
	</clipPath>
	<g id="XMLID_2_" class="st0">
		<g id="XMLID_432_">
			<rect id="XMLID_1056_" x="-1.3" y="0" class="st1" width="85.2" height="146.7"/>
			<rect id="XMLID_1054_" x="-1.3" y="0" class="st1" width="85.2" height="146.7"/>
			<rect id="XMLID_1053_" x="-1.3" y="0" class="st1" width="85.2" height="146.7"/>
			<rect id="XMLID_1052_" x="-1.3" y="0" class="st1" width="85.2" height="146.7"/>
			<rect id="XMLID_1051_" x="-1.3" y="0" class="st1" width="85.2" height="146.7"/>
		</g>
		<g id="XMLID_421_">
			<defs>
				<rect id="XMLID_422_" x="-1.3" y="121" width="85.2" height="25.7"/>
			</defs>
			<clipPath id="XMLID_84_">
				<use xlink:href="#XMLID_422_"  style="overflow:visible;"/>
			</clipPath>
			<path id="XMLID_431_" class="st2" d="M-4.4,136.4v-10.6c0,0,5.2,1,8,0c2.7-1,10.2,0.8,14.2,1.8c4,1,9.9-2.5,13.8-2.1
				c1.8,0.2,4.7,3,7.5,2.4c2.7-0.6,7-3.3,12.4-0.6s18.5,0.8,22-0.8c3.5-1.6,9.2-1.2,12.5,0.8s13.5-1.8,14.5-1.8c1,0,7.6,3.3,8.9,2.9
				c1.2-0.4,5.9-2.1,7.1-1.8s11,4,14.1,4.5c3.1,0.5,12.9-2.4,12.9-2.4v7.9H-4.4z"/>
			<path id="XMLID_429_" class="st3" d="M-24.9,135.1c0,0,7.2-0.3,10.7-0.9c3.5-0.7,8.2-3.4,9.1-3.1s5.2,0.9,6.9,0.5
				c1.6-0.4,4.6-2,8.2-0.6c3.6,1.5,17.5,5,21.7,4.8c4.2-0.1,25.3-3.8,27.2-4.6s4.5-0.8,6.5,0.1c2,0.9,7.6-1.7,8.4-2s18,5.1,22.6,5.9
				c4.6,0.8,11.6-1.9,14.6-1.2c3,0.7,11.7,3.1,11.7,3.1v9.5H-24.9V135.1z"/>
			<path id="XMLID_428_" class="st4" d="M-24.9,146.7v-8.7c0,0,5.2,0.8,8,0c2.7-0.8,11.6,0.7,15.6,1.5c4,0.8,10.6-2.2,12.4-1.8
				c1.7,0.4,4.7,2.5,7.5,1.9s7-2.7,12.4-0.5s18.5,0.7,22-0.7c3.5-1.4,9.2-1,12.5,0.7c3.2,1.7,13.5-1.5,14.5-1.5c1,0,7.6,2.7,8.9,2.4
				c1.2-0.3,5.9-1.7,7.1-1.5c1.2,0.2,11,3.3,14.1,3.7s12.9-2,12.9-2v6.5H-24.9z"/>
		</g>
		<g id="XMLID_549_">
			<g id="XMLID_1036_">
				<line id="XMLID_1041_" class="st5" x1="17.4" y1="54.2" x2="17.8" y2="54.6"/>
				<line id="XMLID_1040_" class="st6" x1="18.5" y1="55.3" x2="25.6" y2="62.3"/>
				<line id="XMLID_1039_" class="st5" x1="25.9" y1="62.6" x2="26.3" y2="63"/>
			</g>
		</g>
		<g id="XMLID_558_">
			<g id="XMLID_1029_">
				<line id="XMLID_1034_" class="st5" x1="63.6" y1="54.2" x2="63.3" y2="54.6"/>
				<line id="XMLID_1032_" class="st6" x1="62.5" y1="55.3" x2="55.5" y2="62.3"/>
				<line id="XMLID_1031_" class="st5" x1="55.1" y1="62.6" x2="54.8" y2="63"/>
			</g>
		</g>
		<g id="XMLID_559_">
			<g id="XMLID_1022_">
				<line id="XMLID_1026_" class="st5" x1="41.3" y1="47.1" x2="41.3" y2="47.6"/>
				<line id="XMLID_1025_" class="st7" x1="41.3" y1="48.7" x2="41.3" y2="54.7"/>
				<line id="XMLID_1023_" class="st5" x1="41.3" y1="55.3" x2="41.3" y2="55.8"/>
			</g>
		</g>
		<g id="XMLID_843_">
			<g id="XMLID_998_">
				<line id="XMLID_1002_" class="st5" x1="63.6" y1="95.7" x2="63.3" y2="95.3"/>
				<line id="XMLID_1001_" class="st6" x1="62.5" y1="94.6" x2="55.5" y2="87.6"/>
				<line id="XMLID_999_" class="st5" x1="55.1" y1="87.3" x2="54.8" y2="86.9"/>
			</g>
		</g>
		<g id="XMLID_837_">
			<g id="XMLID_991_">
				<line id="XMLID_995_" class="st5" x1="17.4" y1="95.7" x2="17.8" y2="95.3"/>
				<line id="XMLID_993_" class="st6" x1="18.5" y1="94.6" x2="25.6" y2="87.6"/>
				<line id="XMLID_992_" class="st5" x1="25.9" y1="87.3" x2="26.3" y2="86.9"/>
			</g>
		</g>
		<g id="XMLID_826_">
			<g id="XMLID_709_">
				<line id="XMLID_961_" class="st5" x1="41.3" y1="97.2" x2="41.3" y2="97.7"/>
				<line id="XMLID_955_" class="st7" x1="41.3" y1="98.8" x2="41.3" y2="104.9"/>
				<line id="XMLID_715_" class="st5" x1="41.3" y1="105.4" x2="41.3" y2="105.9"/>
			</g>
		</g>
	</g>
</g>
</svg>
