<?xml version="1.0" encoding="utf-8"?>
<!-- Generator: Adobe Illustrator 19.0.0, SVG Export Plug-In . SVG Version: 6.00 Build 0)  -->
<svg version="1.1" id="Capa_1" xmlns="http://www.w3.org/2000/svg" xmlns:xlink="http://www.w3.org/1999/xlink" x="0px" y="0px"
	 viewBox="0 0 85.2 21.9" style="enable-background:new 0 0 85.2 21.9;" xml:space="preserve">
<style type="text/css">
	.st0{clip-path:url(#XMLID_314_);fill:#32B869;}
	.st1{clip-path:url(#XMLID_314_);fill:#32A469;}
	.st2{clip-path:url(#XMLID_314_);fill:#329869;}
</style>
<g id="XMLID_421_">
	<defs>
		<rect id="XMLID_422_" x="0" y="-3.8" width="85.2" height="25.7"/>
	</defs>
	<clipPath id="XMLID_314_">
		<use xlink:href="#XMLID_422_"  style="overflow:visible;"/>
	</clipPath>
	<path id="XMLID_431_" class="st0" d="M-3.1,11.7V1.1c0,0,5.2,1,8,0S15,1.9,19,2.9s9.9-2.5,13.8-2.1c1.8,0.2,4.7,3,7.5,2.4
		c2.7-0.6,7-3.3,12.4-0.6s18.5,0.8,22-0.8c3.5-1.6,9.2-1.2,12.5,0.8s13.5-1.8,14.5-1.8c1,0,7.6,3.3,8.9,2.9c1.2-0.4,5.9-2.1,7.1-1.8
		s11,4,14.1,4.5c3.1,0.5,12.9-2.4,12.9-2.4v7.9H-3.1z"/>
	<path id="XMLID_429_" class="st1" d="M-23.6,10.3c0,0,7.2-0.3,10.7-0.9C-9.4,8.7-4.7,6-3.8,6.3s5.2,0.9,6.9,0.5s4.6-2,8.2-0.6
		s17.5,5,21.7,4.8s25.3-3.8,27.2-4.6s4.5-0.8,6.5,0.1c2,0.9,7.6-1.7,8.4-2s18,5.1,22.6,5.9c4.6,0.8,11.6-1.9,14.6-1.2
		c3,0.7,11.7,3.1,11.7,3.1v9.5H-23.6V10.3z"/>
	<path id="XMLID_428_" class="st2" d="M-23.6,21.9v-8.7c0,0,5.2,0.8,8,0S-4,13.8-0.1,14.7c4,0.8,10.6-2.2,12.4-1.8s4.7,2.5,7.5,1.9
		s7-2.7,12.4-0.5s18.5,0.7,22-0.7s9.2-1,12.5,0.7C69.8,16,80,12.8,81,12.8c1,0,7.6,2.7,8.9,2.4c1.2-0.3,5.9-1.7,7.1-1.5
		c1.2,0.2,11,3.3,14.1,3.7c3.1,0.4,12.9-2,12.9-2v6.5H-23.6z"/>
</g>
</svg>
