<?xml version="1.0" encoding="utf-8"?>
<!-- Generator: Adobe Illustrator 19.0.0, SVG Export Plug-In . SVG Version: 6.00 Build 0)  -->
<svg version="1.1" id="Capa_1" xmlns:sketch="http://www.bohemiancoding.com/sketch/ns"
	 xmlns="http://www.w3.org/2000/svg" xmlns:xlink="http://www.w3.org/1999/xlink" x="0px" y="0px" viewBox="-187 188.9 221 464"
	 style="enable-background:new -187 188.9 221 464;" xml:space="preserve">
<title>apple-iphone-5s</title>
<description>Created with Sketch (http://www.bohemiancoding.com/sketch)</description>
<g id="Page-1" sketch:type="MSPage">
	<path id="Apple-iPhone-5S" sketch:type="MSShapeGroup" d="M-184,352.9h-3v-17h3v-21h-3v-17h3v-22h-3v-21h3v-32
		c0-17.7,14.3-32,32-32h114v-2h36v2h4c17.7,0,32,14.3,32,32v398c0,17.7-14.3,32-32,32h-154c-17.7,0-32-14.3-32-32V352.9z M-93,228.9
		c-0.6,0-1,0.4-1,1v2c0,0.6,0.5,1,1,1h22.4H-58c0.6,0,1-0.4,1-1v-2c0-0.6-0.4-1-1-1H-93z M-75.5,217.9c2.5,0,4.5-2,4.5-4.5
		s-2-4.5-4.5-4.5s-4.5,2-4.5,4.5S-78,217.9-75.5,217.9z M-75,638.9c10.5,0,19-8.5,19-19s-8.5-19-19-19s-19,8.5-19,19
		S-85.5,638.9-75,638.9z M-106,233.9c1.7,0,3-1.3,3-3c0-1.7-1.3-3-3-3s-3,1.3-3,3C-109,232.5-107.7,233.9-106,233.9z M-75,636.9
		c9.4,0,17-7.6,17-17s-7.6-17-17-17s-17,7.6-17,17S-84.4,636.9-75,636.9z"/>
</g>
</svg>
