<?xml version="1.0" encoding="utf-8"?>
<!-- Generator: Adobe Illustrator 19.0.0, SVG Export Plug-In . SVG Version: 6.00 Build 0)  -->
<svg version="1.1" id="Capa_1" xmlns="http://www.w3.org/2000/svg" xmlns:xlink="http://www.w3.org/1999/xlink" x="0px" y="0px"
	 viewBox="0 0 16.2 16" style="enable-background:new 0 0 16.2 16;" xml:space="preserve">
<style type="text/css">
	.st0{fill:#369665;}
	.st1{fill:#358965;}
	.st2{fill:#409B62;stroke:#FFFFFF;stroke-width:0.5;stroke-linecap:round;stroke-linejoin:round;stroke-miterlimit:10;}
	.st3{fill:none;stroke:#FFFFFF;stroke-width:0.5525;stroke-linecap:round;stroke-linejoin:round;stroke-miterlimit:10;}
	.st4{fill:#FFFFFF;}
</style>
<g id="XMLID_925_">
	<g id="XMLID_920_">
		<path id="XMLID_924_" class="st0" d="M12.9,15.8c0,0-1.6-1.7-1.6-5.2H7.7c0,3.5-1.6,5.2-1.6,5.2H12.9z"/>
		<path id="XMLID_923_" class="st0" d="M11.6,11c0.2,0.1,0.5,0.2,0.8,0.2c1,0,1.9-0.8,2-1.8c1-0.1,1.8-0.9,1.8-2c0-1-0.7-1.8-1.6-2
			c0.1-0.2,0.1-0.5,0.1-0.7c0-1.2-1-2.1-2.1-2.1c-0.3,0-0.6,0.1-0.9,0.2c-0.4-0.7-1.2-1.1-2.1-1.1c-0.9,0-1.6,0.5-2.1,1.1
			C7.2,2.6,6.9,2.5,6.6,2.5c-1.2,0-2.1,1-2.1,2.1c0,0.3,0,0.5,0.1,0.7c-0.9,0.2-1.6,1-1.6,2c0,1,0.8,1.9,1.8,2c0.1,1,0.9,1.8,2,1.8
			c0.3,0,0.6-0.1,0.8-0.2"/>
	</g>
	<g id="XMLID_889_">
		<path id="XMLID_919_" class="st1" d="M9.9,15.8c0,0-1.6-2.4-1.6-5.9H4.8c0,3.5-1.6,5.9-1.6,5.9H9.9z"/>
		<path id="XMLID_918_" class="st1" d="M8.6,10.3c0.2,0.1,0.5,0.2,0.8,0.2c1,0,1.9-0.8,2-1.8c1-0.1,1.8-0.9,1.8-2c0-1-0.7-1.8-1.6-2
			c0.1-0.2,0.1-0.5,0.1-0.7c0-1.2-1-2.1-2.1-2.1C9.3,1.9,9,2,8.7,2.1C8.3,1.4,7.5,1,6.6,1S5,1.4,4.6,2.1C4.3,2,4,1.9,3.6,1.9
			c-1.2,0-2.1,1-2.1,2.1c0,0.3,0,0.5,0.1,0.7C0.7,4.9,0,5.7,0,6.7c0,1,0.8,1.9,1.8,2c0.1,1,0.9,1.8,2,1.8c0.3,0,0.6-0.1,0.8-0.2"/>
	</g>
	<g id="XMLID_845_">
		<g id="XMLID_885_">
			<path id="XMLID_884_" class="st2" d="M10.1,9.6c0.2,0.1,0.5,0.2,0.8,0.2c1,0,1.9-0.8,2-1.8c1-0.1,1.8-0.9,1.8-2
				c0-1-0.7-1.8-1.6-2c0.1-0.2,0.1-0.5,0.1-0.7c0-1.2-1-2.1-2.1-2.1c-0.3,0-0.6,0.1-0.9,0.2C9.7,0.7,8.9,0.3,8.1,0.3S6.4,0.7,6,1.4
				C5.7,1.3,5.4,1.2,5.1,1.2c-1.2,0-2.1,1-2.1,2.1c0,0.3,0,0.5,0.1,0.7C2.1,4.2,1.4,5,1.4,6c0,1,0.8,1.9,1.8,2c0.1,1,0.9,1.8,2,1.8
				c0.3,0,0.6-0.1,0.8-0.2l0.2-0.4c0,3.5-1.6,6.6-1.6,6.6h6.7c0,0-1.6-3.1-1.6-6.6L10.1,9.6z"/>
		</g>
		<path id="XMLID_876_" class="st3" d="M6.9,6.3c0,0,0.1,1.1,1,1.1s1-1.1,1-1.1"/>
		<circle id="XMLID_872_" class="st4" cx="6.3" cy="5.4" r="0.4"/>
		<circle id="XMLID_871_" class="st4" cx="9.6" cy="5.4" r="0.4"/>
	</g>
</g>
</svg>
