<?xml version="1.0" encoding="utf-8"?>
<!-- Generator: Adobe Illustrator 19.0.0, SVG Export Plug-In . SVG Version: 6.00 Build 0)  -->
<svg version="1.1" id="Capa_1" xmlns="http://www.w3.org/2000/svg" xmlns:xlink="http://www.w3.org/1999/xlink" x="0px" y="0px"
	 viewBox="0 0 19 11.3" style="enable-background:new 0 0 19 11.3;" xml:space="preserve">
<style type="text/css">
	.st0{fill:#FFFFFF;stroke:url(#XMLID_354_);stroke-width:0.4689;stroke-linecap:round;stroke-linejoin:round;stroke-miterlimit:10;}
	.st1{fill:none;stroke:#A53B00;stroke-width:0.4567;stroke-linecap:round;stroke-linejoin:round;stroke-miterlimit:10;}
	.st2{fill:#A53B00;}
	.st3{fill:none;stroke:#93D118;stroke-width:0.9743;stroke-linecap:round;stroke-linejoin:round;stroke-miterlimit:10;}
</style>
<g id="XMLID_313_">
	<g id="XMLID_467_">
		
			<linearGradient id="XMLID_354_" gradientUnits="userSpaceOnUse" x1="-37.4471" y1="11.2697" x2="-37.4471" y2="1.9485" gradientTransform="matrix(-1 0 0 1 -27.9599 0)">
			<stop  offset="0" style="stop-color:#70A63B"/>
			<stop  offset="1" style="stop-color:#329869"/>
		</linearGradient>
		<path id="XMLID_639_" class="st0" d="M11.2,9.9c0.2,0.1,0.4,0.1,0.7,0.1c0.9,0,1.6-0.7,1.6-1.5C14.3,8.5,15,7.8,15,6.9
			c0-0.8-0.6-1.5-1.3-1.6c0.1-0.2,0.1-0.4,0.1-0.6c0-1-0.8-1.8-1.8-1.8c-0.3,0-0.5,0.1-0.8,0.2c-0.4-0.6-1-0.9-1.7-0.9
			S8.1,2.6,7.8,3.1C7.5,3,7.3,2.9,7,2.9c-1,0-1.8,0.8-1.8,1.8c0,0.2,0,0.4,0.1,0.6C4.6,5.5,4,6.1,4,6.9c0,0.9,0.7,1.6,1.5,1.6
			c0.1,0.8,0.8,1.5,1.6,1.5c0.2,0,0.5-0.1,0.7-0.1c0,0,0.2,1.1,1.7,1.1C11.1,11,11.2,9.9,11.2,9.9z"/>
		<path id="XMLID_638_" class="st1" d="M8.6,7.2c0,0,0,0.9,0.9,0.9c0.8,0,0.9-0.9,0.9-0.9"/>
		<circle id="XMLID_633_" class="st2" cx="8" cy="6.5" r="0.3"/>
		<circle id="XMLID_607_" class="st2" cx="10.8" cy="6.5" r="0.3"/>
	</g>
	<path id="XMLID_808_" class="st3" d="M0.5,9.5c0-5,4-9,9-9s9,4,9,9"/>
</g>
</svg>
