<?xml version="1.0" encoding="utf-8"?>
<!-- Generator: Adobe Illustrator 19.0.0, SVG Export Plug-In . SVG Version: 6.00 Build 0)  -->
<svg version="1.1" id="Capa_1" xmlns="http://www.w3.org/2000/svg" xmlns:xlink="http://www.w3.org/1999/xlink" x="0px" y="0px"
	 viewBox="-114.1 400.6 30.5 35.8" style="enable-background:new -114.1 400.6 30.5 35.8;" xml:space="preserve">
<style type="text/css">
	.st0{fill:#32B869;}
	.st1{fill:none;stroke:#FFFFFF;stroke-width:0.7635;stroke-miterlimit:10;}
	.st2{fill:none;stroke:#FFFFFF;stroke-width:1.2725;stroke-linecap:round;stroke-linejoin:round;stroke-miterlimit:10;}
	.st3{fill:#FFFFFF;}
</style>
<g>
	<g id="XMLID_379_">
		<g id="XMLID_283_">
			<path id="XMLID_419_" class="st0" d="M-91.2,436.4c0,0-3.6-7.1-3.6-15.2h-8.2c0,8.1-3.6,15.2-3.6,15.2H-91.2z"/>
		</g>
		<path id="XMLID_407_" class="st0" d="M-94.2,422.1c0.6,0.3,1.2,0.4,1.9,0.4c2.4,0,4.4-1.8,4.6-4.2c2.3-0.2,4.2-2.2,4.2-4.6
			c0-2.2-1.6-4.1-3.8-4.5c0.2-0.5,0.3-1.1,0.3-1.7c0-2.7-2.2-4.9-4.9-4.9c-0.8,0-1.5,0.2-2.1,0.5c-1-1.6-2.8-2.6-4.8-2.6
			s-3.8,1-4.8,2.6c-0.6-0.3-1.4-0.5-2.1-0.5c-2.7,0-4.9,2.2-4.9,4.9c0,0.6,0.1,1.1,0.3,1.7c-2.1,0.4-3.8,2.3-3.8,4.5
			c0,2.4,1.8,4.4,4.2,4.6c0.2,2.3,2.2,4.2,4.6,4.2c0.7,0,1.3-0.1,1.9-0.4"/>
		<path id="XMLID_406_" class="st1" d="M-98.9,424.7c-0.3-0.3-0.6-0.4-1-0.4c-0.6,0-1,0.3-1.3,0.9c-0.2,0.5-0.1,1.1,0.3,1.5
			c0.6,0.6,1.1,1.1,1.7,1.7c0.2,0.2,0.5,0.2,0.6,0c0.6-0.6,1.1-1.1,1.7-1.7c0.4-0.4,0.5-1,0.3-1.5c-0.2-0.6-0.7-0.9-1.3-0.9
			C-98.2,424.4-98.6,424.5-98.9,424.7z"/>
		<line id="XMLID_321_" class="st2" x1="-103.7" y1="412.8" x2="-101.3" y2="412.8"/>
		<line id="XMLID_372_" class="st2" x1="-96.4" y1="412.8" x2="-94" y2="412.8"/>
		<circle id="XMLID_297_" class="st3" cx="-99" cy="417.4" r="1.3"/>
	</g>
	<g id="XMLID_403_">
		<path id="XMLID_405_" class="st3" d="M-95,417.4l0.8-0.9H-95v-0.3h1.1v0.2l-0.8,0.9h0.8v0.3H-95V417.4z"/>
	</g>
	<g id="XMLID_396_">
		<path id="XMLID_416_" class="st3" d="M-92.9,416.3l1.2-1.4h-1.1v-0.4h1.7v0.3l-1.2,1.4h1.2v0.4h-1.8V416.3z"/>
	</g>
</g>
</svg>
