<?xml version="1.0" encoding="utf-8"?>
<!-- Generator: Adobe Illustrator 19.0.0, SVG Export Plug-In . SVG Version: 6.00 Build 0)  -->
<svg version="1.1" id="Capa_1" xmlns="http://www.w3.org/2000/svg" xmlns:xlink="http://www.w3.org/1999/xlink" x="0px" y="0px"
	 viewBox="0 0 19 11.3" style="enable-background:new 0 0 19 11.3;" xml:space="preserve">
<style type="text/css">
	.st0{fill:none;stroke:#93D118;stroke-width:0.9743;stroke-linecap:round;stroke-linejoin:round;stroke-miterlimit:10;}
	.st1{fill:none;stroke:#227080;stroke-width:0.5;stroke-linecap:round;stroke-linejoin:round;stroke-miterlimit:10;}
</style>
<g id="XMLID_353_">
	<path id="XMLID_661_" class="st0" d="M0.5,1.8c0,5,4,9,9,9s9-4,9-9"/>
	<path id="XMLID_560_" class="st1" d="M11.5,5.7c0,0,0.1,0.3,0,0.9s-0.5,0.9-0.6,1c0.2,0,0.4,0,0.7,0c0.2,0,0.4,0,0.5,0.2
		c0.1,0.3,0,0.3-0.3,0.3c-1,0-1.9,0-2.9,0c-0.3,0-0.6,0-0.8-0.1C8,8,8,8,7.9,8c-1-0.3-1.6-1-1.9-2c-0.2-0.9,0-1.7,0.5-2.4
		C6.7,3.4,6.9,3.2,7,3c0.1-0.1,0.2-0.3,0.1-0.5C7.1,2.3,6.8,2.1,6.6,2.2C6.3,2.2,6,2.3,5.8,2.4C5.6,2.5,5.4,2.6,5.1,2.6
		c-0.2,0-0.3,0-0.3-0.2c0-0.4,0.2-0.7,0.5-1c0.6-0.6,1.3-1,2.2-1.2C8.3,0.2,8.9,0.4,9.4,1c0.4,0.5,0.5,1,0.2,1.6c0,0,0,0.1-0.1,0.1
		C9.4,3,9.3,3.2,8.9,3.3c-1,0.3-1.7,1-1.9,2C6.9,5.7,6.9,6,7,6.3c0,0,0,0.1,0.1,0.1c0,0,0,0,0,0c0,0,0,0,0,0c0-0.1,0-0.1,0-0.2
		C6.8,5,7.9,3.7,9.4,3.4c0.5-0.1,0.9,0,1.4,0.1c0.4,0,0.8,0,1-0.4c0.1-0.1,0.2-0.2,0.3-0.3c0.2-0.1,0.3-0.4,0.2-0.6
		c0-0.1,0-0.1,0-0.2c0-0.1,0-0.1,0-0.2c0.1,0,0.1,0,0.2,0.1C12.7,2,12.9,2.2,13,2.5c0,0.1,0.1,0.2,0.2,0.3c0.4,0.2,0.6,0.5,0.8,1
		c0.1,0.2,0.1,0.3,0.1,0.5c0.1,0.3-0.1,0.4-0.4,0.4c-0.3,0-0.5,0-0.8,0c-0.1,0-0.2,0.1-0.2,0.2C12.8,4.9,12.8,5,13,5
		c0.1,0,0.2,0,0.3-0.1c0.2,0,0.4,0,0.6,0.1c0.2,0.2,0.3,0.5,0,0.6c-0.1,0.1-0.3,0.1-0.4,0c-0.1,0-0.2,0-0.3,0c0,0-0.1,0-0.1,0
		c-0.1,0-0.1,0.1-0.2,0.1c-0.3,0-0.7,0-1,0c0,0-0.5-0.9-1.4-0.9C10.4,4.8,11.5,5.2,11.5,5.7z"/>
</g>
</svg>
