<?xml version="1.0" encoding="utf-8"?>
<!-- Generator: Adobe Illustrator 19.0.0, SVG Export Plug-In . SVG Version: 6.00 Build 0)  -->
<svg version="1.1" id="Capa_1" xmlns="http://www.w3.org/2000/svg" xmlns:xlink="http://www.w3.org/1999/xlink" x="0px" y="0px"
	 viewBox="0 0 19 11.3" style="enable-background:new 0 0 19 11.3;" xml:space="preserve">
<style type="text/css">
	.st0{fill:none;stroke:#93D118;stroke-width:0.9743;stroke-linecap:round;stroke-linejoin:round;stroke-miterlimit:10;}
	.st1{fill:none;stroke:#227080;stroke-width:0.5;stroke-miterlimit:10;}
</style>
<g id="XMLID_353_">
	<path id="XMLID_800_" class="st0" d="M0.5,9.5c0-5,4-9,9-9s9,4,9,9"/>
	<path id="XMLID_830_" class="st1" d="M9.6,4.5c-1,0-2.1,0-3.1,0c-1.7,0-3.1,1.6-3.1,3.4c0.1,1.6,1.3,2.9,2.6,3.1
		c1,0.2,1.9,0,2.7-0.6c0.1-0.1,0.2-0.1,0.3-0.1c0.4,0,0.7,0,1.1,0c0.1,0,0.2,0,0.3,0.1c1,0.8,2.1,0.9,3.3,0.5c1.2-0.5,1.9-1.4,2-2.6
		c0.2-2-1.3-3.7-3.3-3.7C11.5,4.5,10.6,4.5,9.6,4.5C9.6,4.5,9.6,4.5,9.6,4.5z M6.1,8.4C6.1,8.4,6.1,8.4,6.1,8.4c-0.4,0-0.8,0-1.1,0
		c-0.2,0-0.3-0.1-0.3-0.3c0-0.2,0-0.4,0-0.6c0-0.3,0-0.3,0.3-0.3c0.4,0,0.7,0,1.1,0c0-0.1,0-0.2,0-0.2c0-0.3,0-0.6,0-0.9
		c0-0.2,0.1-0.3,0.3-0.3c0.2,0,0.4,0,0.6,0c0.3,0,0.4,0,0.4,0.4c0,0.3,0,0.7,0,1.1c0.4,0,0.8,0,1.2,0c0.2,0,0.3,0.1,0.3,0.3
		c0,0.2,0,0.4,0,0.6c0,0.3-0.1,0.3-0.3,0.3c-0.4,0-0.7,0-1.1,0c0,0.1,0,0.2,0,0.2c0,0.3,0,0.6,0,0.9c0,0.2-0.1,0.3-0.3,0.3
		c-0.2,0-0.4,0-0.6,0c-0.3,0-0.4,0-0.4-0.4C6.1,9.1,6.1,8.7,6.1,8.4z M11.6,7.7c0.5,0,0.8,0.4,0.9,0.8c0,0.4-0.4,0.8-0.8,0.8
		c-0.5,0-0.8-0.4-0.9-0.8C10.8,8.1,11.2,7.8,11.6,7.7z M14.1,6.9c0,0.4-0.4,0.8-0.8,0.8c-0.4,0-0.8-0.4-0.8-0.8
		c0-0.5,0.4-0.8,0.8-0.8C13.8,6.1,14.1,6.5,14.1,6.9z"/>
</g>
</svg>
