<?xml version="1.0" encoding="utf-8"?>
<!-- Generator: Adobe Illustrator 19.0.0, SVG Export Plug-In . SVG Version: 6.00 Build 0)  -->
<svg version="1.1" id="Capa_1" xmlns="http://www.w3.org/2000/svg" xmlns:xlink="http://www.w3.org/1999/xlink" x="0px" y="0px"
	 viewBox="0 0 19 11.7" style="enable-background:new 0 0 19 11.7;" xml:space="preserve">
<style type="text/css">
	.st0{fill:none;stroke:#93D118;stroke-width:0.9743;stroke-linecap:round;stroke-linejoin:round;stroke-miterlimit:10;}
	.st1{fill:none;stroke:#227080;stroke-width:0.5;stroke-miterlimit:10;}
</style>
<g id="XMLID_379_">
	<path id="XMLID_849_" class="st0" d="M0.5,2.3c0,5,4,9,9,9s9-4,9-9"/>
	<g id="XMLID_465_">
		<path id="XMLID_860_" class="st1" d="M12.2,2.7c0,0.3,0,0.6,0,0.9c0,0.1,0,0.2,0.1,0.2c0.1,0,0.2,0,0.2-0.1c0.5-0.5,1-1,1.5-1.5
			c0.1-0.1,0.1-0.2,0-0.3c-0.5-0.5-1-1-1.5-1.5c-0.1-0.1-0.2-0.1-0.2-0.1c0,0.1-0.1,0.2-0.1,0.2c0,0.3,0,0.6,0,0.9
			c-0.2,0-0.4,0-0.6,0c-0.4,0-0.7,0-1.1,0C9.8,1.6,9.3,2,8.9,2.5C8.5,3.1,8.3,3.6,8,4.2c-0.2,0.3-0.3,0.7-0.5,1
			C7.2,5.7,6.8,5.9,6.3,5.9c-0.3,0-0.6,0-0.9,0c-0.1,0-0.2,0.1-0.2,0.2c0,0.3,0,0.6,0,0.9c0,0.1,0,0.2,0.2,0.2c0.5,0,1,0,1.6,0
			C7.6,7,8.1,6.6,8.5,6C8.8,5.5,9,5,9.3,4.4C9.5,4,9.7,3.6,10,3.2c0.2-0.3,0.5-0.5,0.9-0.5C11.3,2.7,11.7,2.7,12.2,2.7z"/>
		<path id="XMLID_859_" class="st1" d="M12.2,5.9c-0.5,0-0.9,0-1.4,0c-0.5,0-0.8-0.3-1-0.7C9.7,5,9.6,4.9,9.5,4.7
			C9.4,4.9,9.3,5.1,9.2,5.3C9.1,5.5,9,5.7,8.9,5.9c0,0.1,0,0.1,0,0.2c0.5,0.7,1.2,1,2,1c0.4,0,0.8,0,1.2,0c0,0.1,0,0.1,0,0.2
			c0,0.3,0,0.5,0,0.8c0,0.1,0.1,0.1,0.1,0.2c0,0,0.1,0,0.2,0c0.5-0.5,1.1-1,1.6-1.6c0.1-0.1,0.1-0.2,0-0.3c-0.5-0.5-1-1-1.6-1.5
			c0,0-0.1-0.1-0.2-0.1c0,0-0.1,0.1-0.1,0.2C12.2,5.3,12.2,5.6,12.2,5.9z"/>
		<path id="XMLID_858_" class="st1" d="M7.8,3.9c0.2-0.3,0.3-0.7,0.5-1c0,0,0-0.1,0.1-0.1c0.1-0.2,0.1-0.3,0-0.5
			C7.8,1.7,7.2,1.4,6.4,1.4c-0.4,0-0.7,0-1.1,0c-0.2,0-0.2,0-0.2,0.2c0,0.3,0,0.6,0,0.8c0,0.1,0.1,0.2,0.2,0.2c0.3,0,0.6,0,0.9,0
			c0.6,0,1,0.2,1.3,0.7C7.6,3.6,7.7,3.7,7.8,3.9z"/>
	</g>
</g>
</svg>
