<?xml version="1.0" encoding="utf-8"?>
<!-- Generator: Adobe Illustrator 19.0.0, SVG Export Plug-In . SVG Version: 6.00 Build 0)  -->
<svg version="1.1" id="Capa_1" xmlns="http://www.w3.org/2000/svg" xmlns:xlink="http://www.w3.org/1999/xlink" x="0px" y="0px"
	 viewBox="0 0 19 11.7" style="enable-background:new 0 0 19 11.7;" xml:space="preserve">
<style type="text/css">
	.st0{fill:none;stroke:#93D118;stroke-width:0.9743;stroke-linecap:round;stroke-linejoin:round;stroke-miterlimit:10;}
	.st1{fill:none;stroke:#227080;stroke-width:0.5;stroke-miterlimit:10;}
</style>
<g id="XMLID_379_">
	<path id="XMLID_648_" class="st0" d="M0.5,2.2c0,5,4,9,9,9s9-4,9-9"/>
	<path id="XMLID_873_" class="st1" d="M9.5,2.1C9,2.2,8.5,2.4,7.9,2.6C7.8,2.3,7.8,2,7.7,1.8C7.5,1.4,7.1,1.2,6.7,1.3
		C6.4,1.4,6.1,1.8,6.2,2.2c0.1,0.3,0.2,0.6,0.3,0.9C6.3,3.1,6.2,3.2,6,3.2c-0.1,0-0.2,0.1-0.3,0.1C5.3,3.5,5.1,3.9,5.2,4.3
		c0.1,0.4,0.5,0.6,0.9,0.4C6.4,4.7,6.7,4.6,7,4.5C7.2,5,7.3,5.5,7.5,6.1C7.3,6.2,7,6.3,6.7,6.3C6.4,6.5,6.3,6.7,6.2,7
		c0,0.3,0,0.5,0.3,0.7c0.2,0.2,0.4,0.2,0.7,0.1C7.4,7.6,7.7,7.6,8,7.5C8.1,7.8,8.2,8,8.3,8.3C8.4,8.6,8.7,8.8,9,8.8
		c0.3,0,0.6-0.2,0.7-0.5c0-0.2,0-0.3,0-0.5c0-0.1-0.1-0.3-0.1-0.4c0-0.1-0.1-0.3-0.1-0.4c0.5-0.2,1.1-0.4,1.6-0.5
		c0.1,0.3,0.2,0.6,0.3,0.9c0.1,0.3,0.3,0.4,0.6,0.5c0.3,0,0.5-0.1,0.7-0.3c0.2-0.2,0.2-0.5,0.1-0.7c-0.1-0.3-0.2-0.5-0.3-0.8
		c0.2-0.1,0.4-0.2,0.7-0.2c0.1,0,0.2-0.1,0.2-0.1c0.4-0.2,0.5-0.5,0.4-0.9c-0.1-0.4-0.5-0.6-0.8-0.5c-0.3,0.1-0.5,0.2-0.8,0.2
		c-0.1,0-0.1,0-0.2,0.1c-0.1-0.3-0.2-0.5-0.3-0.8c-0.1-0.3-0.2-0.5-0.3-0.8c0.2-0.1,0.4-0.2,0.7-0.2c0.1,0,0.2-0.1,0.3-0.1
		c0.3-0.2,0.5-0.5,0.3-0.9c-0.1-0.3-0.5-0.5-0.8-0.4c-0.2,0.1-0.5,0.2-0.7,0.2c-0.1,0-0.1,0-0.2,0.1c-0.1-0.2-0.1-0.4-0.2-0.5
		c0-0.1-0.1-0.2-0.1-0.4c-0.2-0.3-0.6-0.5-0.9-0.4C9.4,0.4,9.1,0.8,9.2,1.1C9.3,1.4,9.4,1.7,9.5,2.1z M10,3.4
		C10.2,4,10.4,4.5,10.5,5C10,5.2,9.5,5.4,8.9,5.6C8.8,5,8.6,4.5,8.4,4C8.9,3.8,9.4,3.6,10,3.4z"/>
</g>
</svg>
