<?xml version="1.0" encoding="utf-8"?>
<!-- Generator: Adobe Illustrator 19.0.0, SVG Export Plug-In . SVG Version: 6.00 Build 0)  -->
<svg version="1.1" id="Capa_1" xmlns="http://www.w3.org/2000/svg" xmlns:xlink="http://www.w3.org/1999/xlink" x="0px" y="0px"
	 viewBox="0 0 19 11.2" style="enable-background:new 0 0 19 11.2;" xml:space="preserve">
<style type="text/css">
	.st0{fill:none;stroke:#93D118;stroke-width:0.9743;stroke-linecap:round;stroke-linejoin:round;stroke-miterlimit:10;}
	.st1{fill:none;stroke:#227080;stroke-width:0.5;stroke-miterlimit:10;}
</style>
<g id="XMLID_379_">
	<path id="XMLID_816_" class="st0" d="M0.5,9.5c0-5,4-9,9-9s9,4,9,9"/>
	<path id="XMLID_815_" class="st1" d="M9.6,3.2c-1,0-1.9,0.2-2.7,0.7C6.3,4.3,5.7,4.8,5.4,5.5C5,6.3,5.2,7.2,5.7,7.9
		c0.3,0.4,0.6,0.7,1.1,1C6.9,8.9,6.9,9,6.9,9.1C6.7,9.6,6.4,10,6.1,10.3C6,10.4,6,10.5,5.9,10.6c0,0.1-0.1,0.2,0,0.3
		c0,0.1,0.2,0.1,0.2,0.1c1-0.1,1.8-0.5,2.6-1.1c0.2-0.1,0.3-0.2,0.5-0.2c1.4,0.1,2.7-0.2,3.9-1.1c0.5-0.4,0.9-0.9,1-1.6
		c0.2-0.8-0.1-1.5-0.6-2.1c-0.7-0.8-1.7-1.3-2.7-1.4C10.4,3.3,10,3.3,9.6,3.2z"/>
</g>
</svg>
