<?xml version="1.0" encoding="utf-8"?>
<!-- Generator: Adobe Illustrator 19.0.0, SVG Export Plug-In . SVG Version: 6.00 Build 0)  -->
<svg version="1.1" id="Capa_1" xmlns="http://www.w3.org/2000/svg" xmlns:xlink="http://www.w3.org/1999/xlink" x="0px" y="0px"
	 viewBox="0 0 85.2 54.6" style="enable-background:new 0 0 85.2 54.6;" xml:space="preserve">
<style type="text/css">
	.st0{clip-path:url(#XMLID_93_);fill:#32B869;}
	.st1{clip-path:url(#XMLID_93_);fill:#32A469;}
	.st2{clip-path:url(#XMLID_93_);fill:#329869;}
	.st3{fill:#32B869;}
	.st4{fill:none;stroke:#329869;stroke-linecap:round;stroke-linejoin:round;stroke-miterlimit:10;}
	.st5{fill:none;stroke:#329869;stroke-width:0.5;stroke-linecap:round;stroke-linejoin:round;stroke-miterlimit:10;}
</style>
<g id="XMLID_46_">
	<g id="XMLID_87_">
		<defs>
			<rect id="XMLID_88_" x="0" y="29" width="85.2" height="25.7"/>
		</defs>
		<clipPath id="XMLID_93_">
			<use xlink:href="#XMLID_88_"  style="overflow:visible;"/>
		</clipPath>
		<path id="XMLID_91_" class="st0" d="M-3.1,44.4V33.8c0,0,5.2,1,8,0S15,34.6,19,35.7c4,1,9.9-2.5,13.8-2.1c1.8,0.2,4.7,3,7.5,2.4
			c2.7-0.6,7-3.3,12.4-0.6s18.5,0.8,22-0.8c3.5-1.6,9.2-1.2,12.5,0.8s13.5-1.8,14.5-1.8c1,0,7.6,3.3,8.9,2.9
			c1.2-0.4,5.9-2.1,7.1-1.8c1.2,0.2,11,4,14.1,4.5c3.1,0.5,12.9-2.4,12.9-2.4v7.9H-3.1z"/>
		<path id="XMLID_90_" class="st1" d="M-23.6,43c0,0,7.2-0.3,10.7-0.9c3.5-0.7,8.2-3.4,9.1-3.1s5.2,0.9,6.9,0.5s4.6-2,8.2-0.6
			s17.5,5,21.7,4.8s25.3-3.8,27.2-4.6c1.9-0.8,4.5-0.8,6.5,0.1c2,0.9,7.6-1.7,8.4-2s18,5.1,22.6,5.9s11.6-1.9,14.6-1.2
			c3,0.7,11.7,3.1,11.7,3.1v9.5H-23.6V43z"/>
		<path id="XMLID_89_" class="st2" d="M-23.6,54.6v-8.7c0,0,5.2,0.8,8,0c2.7-0.8,11.6,0.7,15.6,1.5c4,0.8,10.6-2.2,12.4-1.8
			c1.7,0.4,4.7,2.5,7.5,1.9c2.7-0.5,7-2.7,12.4-0.5s18.5,0.7,22-0.7c3.5-1.4,9.2-1,12.5,0.7c3.2,1.7,13.5-1.5,14.5-1.5
			c1,0,7.6,2.7,8.9,2.4c1.2-0.3,5.9-1.7,7.1-1.5c1.2,0.2,11,3.3,14.1,3.7c3.1,0.4,12.9-2,12.9-2v6.5H-23.6z"/>
	</g>
	<g id="XMLID_83_">
		<circle id="XMLID_86_" class="st3" cx="74.9" cy="26.7" r="9.2"/>
		<circle id="XMLID_85_" class="st3" cx="74.9" cy="14.1" r="7.3"/>
		<circle id="XMLID_84_" class="st3" cx="74.9" cy="5.2" r="5.2"/>
	</g>
	<g id="XMLID_61_">
		<circle id="XMLID_82_" class="st3" cx="10.2" cy="33.2" r="5.5"/>
		<circle id="XMLID_63_" class="st3" cx="10.2" cy="25.5" r="4.4"/>
		<circle id="XMLID_62_" class="st3" cx="10.2" cy="20.2" r="3.2"/>
	</g>
	<g id="XMLID_55_">
		<line id="XMLID_60_" class="st4" x1="75.2" y1="4.6" x2="75.2" y2="35.7"/>
		<line id="XMLID_59_" class="st4" x1="78.2" y1="16.5" x2="75.2" y2="18.1"/>
		<line id="XMLID_58_" class="st4" x1="78.2" y1="8.6" x2="75.2" y2="10.2"/>
		<line id="XMLID_57_" class="st4" x1="72.2" y1="22.2" x2="75.2" y2="23.8"/>
		<line id="XMLID_56_" class="st4" x1="72.2" y1="14.3" x2="75.2" y2="15.9"/>
	</g>
	<g id="XMLID_49_">
		<line id="XMLID_54_" class="st5" x1="10.2" y1="19.4" x2="10.2" y2="34.9"/>
		<line id="XMLID_53_" class="st5" x1="11.7" y1="25.3" x2="10.2" y2="26.1"/>
		<line id="XMLID_52_" class="st5" x1="11.7" y1="21.3" x2="10.2" y2="22.2"/>
		<line id="XMLID_51_" class="st5" x1="8.7" y1="28.2" x2="10.2" y2="29"/>
		<line id="XMLID_50_" class="st5" x1="8.7" y1="24.2" x2="10.2" y2="25"/>
	</g>
</g>
</svg>
