<?xml version="1.0" encoding="utf-8"?>
<!-- Generator: Adobe Illustrator 19.0.0, SVG Export Plug-In . SVG Version: 6.00 Build 0)  -->
<svg version="1.1" id="Capa_1" xmlns="http://www.w3.org/2000/svg" xmlns:xlink="http://www.w3.org/1999/xlink" x="0px" y="0px"
	 viewBox="-254 347.2 82.2 146.7" style="enable-background:new -254 347.2 82.2 146.7;" xml:space="preserve">
<style type="text/css">
	.st0{clip-path:url(#XMLID_2_);}
	.st1{fill:#FFFFFF;}
	.st2{fill:url(#XMLID_3_);}
	.st3{clip-path:url(#SVGID_2_);fill:#32B869;}
	.st4{clip-path:url(#SVGID_4_);fill:#32A469;}
	.st5{clip-path:url(#SVGID_6_);fill:#329869;}
	.st6{fill:#32B869;}
	.st7{fill:none;stroke:#329869;stroke-linecap:round;stroke-linejoin:round;stroke-miterlimit:10;}
	.st8{fill:none;stroke:#329869;stroke-width:0.5;stroke-linecap:round;stroke-linejoin:round;stroke-miterlimit:10;}
	.st9{opacity:0.9;}
	.st10{fill:none;stroke:#FFFFFF;stroke-linecap:round;stroke-linejoin:round;stroke-miterlimit:10;}
	.st11{opacity:0.7;}
	.st12{opacity:0.5;}
</style>
<g>
	<defs>
		<rect id="XMLID_716_" x="-254" y="347.2" width="82.6" height="146.7"/>
	</defs>
	<clipPath id="XMLID_2_">
		<use xlink:href="#XMLID_716_"  style="overflow:visible;"/>
	</clipPath>
	<g class="st0">
		<g id="XMLID_369_">
			<rect id="XMLID_201_" x="-257" y="347.2" class="st1" width="85.2" height="146.7"/>
			<rect id="XMLID_199_" x="-257" y="347.2" class="st1" width="85.2" height="146.7"/>
			<rect id="XMLID_198_" x="-257" y="347.2" class="st1" width="85.2" height="146.7"/>
			<rect id="XMLID_197_" x="-257" y="347.2" class="st1" width="85.2" height="146.7"/>
			
				<linearGradient id="XMLID_3_" gradientUnits="userSpaceOnUse" x1="-214.4019" y1="346.38" x2="-214.4019" y2="493.08" gradientTransform="matrix(1 0 0 -1 0 840.27)">
				<stop  offset="0" style="stop-color:#0BFFFF"/>
				<stop  offset="1" style="stop-color:#44AFE5"/>
			</linearGradient>
			<rect id="XMLID_196_" x="-257" y="347.2" class="st2" width="85.2" height="146.7"/>
		</g>
		<g id="XMLID_348_">
			<g id="XMLID_358_">
				<g>
					<defs>
						<rect id="SVGID_1_" x="-257" y="468.2" width="85.2" height="25.7"/>
					</defs>
					<clipPath id="SVGID_2_">
						<use xlink:href="#SVGID_1_"  style="overflow:visible;"/>
					</clipPath>
					<path id="XMLID_367_" class="st3" d="M-260.1,483.6V473c0,0,5.2,1,8,0c2.8-1,10.2,0.8,14.2,1.8c4,1,9.9-2.5,13.8-2.1
						c1.8,0.2,4.7,3,7.5,2.4c2.7-0.6,7-3.3,12.4-0.6c5.4,2.7,18.5,0.8,22-0.8s9.2-1.2,12.5,0.8c3.2,2.1,13.5-1.8,14.5-1.8
						s7.6,3.3,8.9,2.9c1.2-0.4,5.9-2.1,7.1-1.8c1.2,0.2,11,4,14.1,4.5s12.9-2.4,12.9-2.4v7.9h-147.9V483.6z"/>
				</g>
				<g>
					<defs>
						<rect id="SVGID_3_" x="-257" y="468.2" width="85.2" height="25.7"/>
					</defs>
					<clipPath id="SVGID_4_">
						<use xlink:href="#SVGID_3_"  style="overflow:visible;"/>
					</clipPath>
					<path id="XMLID_366_" class="st4" d="M-280.6,482.3c0,0,7.2-0.3,10.7-0.9c3.5-0.7,8.2-3.4,9.1-3.1c0.9,0.3,5.2,0.9,6.9,0.5
						c1.6-0.4,4.6-2,8.2-0.6c3.6,1.4,17.5,5,21.7,4.8c4.2-0.1,25.3-3.8,27.2-4.6c1.9-0.8,4.5-0.8,6.5,0.1s7.6-1.7,8.4-2
						c0.8-0.3,18,5.1,22.6,5.9c4.6,0.8,11.6-1.9,14.6-1.2c3,0.7,11.7,3.1,11.7,3.1v9.5h-147.6V482.3z"/>
				</g>
				<g>
					<defs>
						<rect id="SVGID_5_" x="-257" y="468.2" width="85.2" height="25.7"/>
					</defs>
					<clipPath id="SVGID_6_">
						<use xlink:href="#SVGID_5_"  style="overflow:visible;"/>
					</clipPath>
					<path id="XMLID_360_" class="st5" d="M-280.6,493.9v-8.7c0,0,5.2,0.8,8,0c2.7-0.8,11.6,0.7,15.6,1.5c4,0.8,10.6-2.2,12.4-1.8
						c1.7,0.4,4.7,2.5,7.5,1.9c2.7-0.5,7-2.7,12.4-0.5c5.4,2.2,18.5,0.7,22-0.7s9.2-1,12.5,0.7c3.2,1.7,13.5-1.5,14.5-1.5
						s7.6,2.7,8.9,2.4c1.2-0.3,5.9-1.7,7.1-1.5c1.2,0.2,11,3.3,14.1,3.7c3.1,0.4,12.9-2,12.9-2v6.5H-280.6L-280.6,493.9z"/>
				</g>
			</g>
			<g id="XMLID_519_">
				<circle id="XMLID_299_" class="st6" cx="-182.1" cy="465.9" r="9.2"/>
				<circle id="XMLID_486_" class="st6" cx="-182.1" cy="453.3" r="7.3"/>
				<circle id="XMLID_487_" class="st6" cx="-182.1" cy="444.4" r="5.2"/>
			</g>
			<g id="XMLID_532_">
				<circle id="XMLID_536_" class="st6" cx="-246.8" cy="472.4" r="5.5"/>
				<circle id="XMLID_535_" class="st6" cx="-246.8" cy="464.7" r="4.4"/>
				<circle id="XMLID_534_" class="st6" cx="-246.8" cy="459.4" r="3.2"/>
			</g>
			<g id="XMLID_528_">
				<line id="XMLID_488_" class="st7" x1="-181.8" y1="443.8" x2="-181.8" y2="474.9"/>
				<line id="XMLID_489_" class="st7" x1="-178.8" y1="455.7" x2="-181.8" y2="457.4"/>
				<line id="XMLID_490_" class="st7" x1="-178.8" y1="447.8" x2="-181.8" y2="449.4"/>
				<line id="XMLID_492_" class="st7" x1="-184.8" y1="461.4" x2="-181.8" y2="463"/>
				<line id="XMLID_491_" class="st7" x1="-184.8" y1="453.5" x2="-181.8" y2="455.1"/>
			</g>
			<g id="XMLID_538_">
				<line id="XMLID_543_" class="st8" x1="-246.8" y1="458.6" x2="-246.8" y2="474.1"/>
				<line id="XMLID_542_" class="st8" x1="-245.3" y1="464.5" x2="-246.8" y2="465.3"/>
				<line id="XMLID_541_" class="st8" x1="-245.3" y1="460.6" x2="-246.8" y2="461.4"/>
				<line id="XMLID_540_" class="st8" x1="-248.3" y1="467.4" x2="-246.8" y2="468.2"/>
				<line id="XMLID_539_" class="st8" x1="-248.3" y1="463.4" x2="-246.8" y2="464.2"/>
			</g>
		</g>
		<g id="XMLID_384_" class="st9">
			<path id="XMLID_494_" class="st10" d="M-180.6,389.8c-3.3,0-5,2.6-5,2.6s-1.6-2.6-5-2.6"/>
		</g>
		<g id="XMLID_521_" class="st11">
			<path id="XMLID_522_" class="st10" d="M-179.1,409.2c-2.5,0-3.7,1.9-3.7,1.9s-1.2-1.9-3.7-1.9"/>
		</g>
		<g id="XMLID_524_" class="st12">
			<path id="XMLID_525_" class="st10" d="M-240.4,395.3c-2.5,0-3.7,1.9-3.7,1.9s-1.2-1.9-3.7-1.9"/>
		</g>
	</g>
</g>
</svg>
