<?xml version="1.0" encoding="utf-8"?>
<!-- Generator: Adobe Illustrator 19.0.0, SVG Export Plug-In . SVG Version: 6.00 Build 0)  -->
<svg version="1.1" id="Capa_1" xmlns="http://www.w3.org/2000/svg" xmlns:xlink="http://www.w3.org/1999/xlink" x="0px" y="0px"
	 viewBox="0 0 51.6 42.1" style="enable-background:new 0 0 51.6 42.1;" xml:space="preserve">
<style type="text/css">
	.st0{fill:#FFFFFF;stroke:url(#XMLID_145_);stroke-width:2.1163;stroke-linecap:round;stroke-linejoin:round;stroke-miterlimit:10;}
	.st1{fill:none;stroke:#A53B00;stroke-width:2.0612;stroke-linecap:round;stroke-linejoin:round;stroke-miterlimit:10;}
	.st2{fill:#A53B00;}
</style>
<g id="XMLID_333_">
	
		<linearGradient id="XMLID_145_" gradientUnits="userSpaceOnUse" x1="311.2484" y1="42.0717" x2="311.2484" y2="1.471366e-006" gradientTransform="matrix(-1 0 0 1 337.0399 0)">
		<stop  offset="0" style="stop-color:#70A63B"/>
		<stop  offset="1" style="stop-color:#329869"/>
	</linearGradient>
	<path id="XMLID_464_" class="st0" d="M33.3,36c0.9,0.4,2,0.7,3.1,0.7c3.9,0,7.1-3,7.4-6.8c3.8-0.3,6.8-3.5,6.8-7.4
		c0-3.6-2.6-6.7-6.1-7.3c0.3-0.8,0.5-1.7,0.5-2.7c0-4.4-3.6-8-8-8c-1.2,0-2.4,0.3-3.4,0.8c-1.6-2.5-4.5-4.2-7.7-4.2
		s-6.1,1.7-7.7,4.2c-1-0.5-2.2-0.8-3.4-0.8c-4.4,0-8,3.6-8,8c0,0.9,0.2,1.8,0.5,2.7c-3.5,0.6-6.1,3.7-6.1,7.3c0,3.9,3,7.1,6.8,7.4
		c0.3,3.8,3.5,6.8,7.4,6.8c1.1,0,2.1-0.2,3.1-0.7c0,0,0.7,5,7.5,5C33.1,41.1,33.3,36,33.3,36z"/>
	<path id="XMLID_420_" class="st1" d="M21.6,23.6c0,0,0.2,4.1,3.8,4.1s3.8-4.1,3.8-4.1"/>
	<circle id="XMLID_335_" class="st2" cx="19.3" cy="20.4" r="1.4"/>
	<circle id="XMLID_334_" class="st2" cx="31.6" cy="20.4" r="1.4"/>
</g>
</svg>
